<svg width="1200" height="900" viewBox="0 0 1200 900" fill="none" xmlns="http://www.w3.org/2000/svg">
  <rect width="1200" height="900" rx="48" fill="url(#bg)"/>
  <circle cx="940" cy="170" r="150" fill="#22C7D6" fill-opacity="0.16"/>
  <rect x="110" y="160" width="980" height="620" rx="34" fill="#071B34" fill-opacity="0.28" stroke="white" stroke-opacity="0.12"/>
  <rect x="170" y="250" width="860" height="360" rx="26" fill="#0B2F6F" fill-opacity="0.86"/>
  <rect x="220" y="300" width="240" height="210" rx="20" fill="#0F172A"/>
  <rect x="250" y="330" width="180" height="140" rx="14" fill="#BAE6FD"/>
  <rect x="500" y="300" width="470" height="26" rx="13" fill="#67E8F9" fill-opacity="0.84"/>
  <rect x="500" y="352" width="390" height="18" rx="9" fill="white" fill-opacity="0.7"/>
  <rect x="500" y="390" width="430" height="18" rx="9" fill="white" fill-opacity="0.5"/>
  <rect x="500" y="428" width="340" height="18" rx="9" fill="white" fill-opacity="0.4"/>
  <rect x="178" y="650" width="844" height="78" rx="22" fill="white" fill-opacity="0.1"/>
  <rect x="220" y="674" width="180" height="28" rx="14" fill="#E2E8F0" fill-opacity="0.72"/>
  <rect x="426" y="674" width="160" height="28" rx="14" fill="#67E8F9" fill-opacity="0.82"/>
  <rect x="612" y="674" width="120" height="28" rx="14" fill="#E2E8F0" fill-opacity="0.6"/>
  <rect x="758" y="674" width="220" height="28" rx="14" fill="#E2E8F0" fill-opacity="0.4"/>
  <defs>
    <linearGradient id="bg" x1="130" y1="60" x2="1060" y2="850" gradientUnits="userSpaceOnUse">
      <stop stop-color="#0B2F6F"/>
      <stop offset="1" stop-color="#0EA5B7"/>
    </linearGradient>
  </defs>
</svg>
