<svg width="1200" height="900" viewBox="0 0 1200 900" fill="none" xmlns="http://www.w3.org/2000/svg">
  <rect width="1200" height="900" rx="48" fill="url(#bg)"/>
  <circle cx="1030" cy="140" r="120" fill="#22C7D6" fill-opacity="0.22"/>
  <circle cx="170" cy="170" r="96" fill="#7DD3FC" fill-opacity="0.22"/>
  <rect x="100" y="180" width="1000" height="560" rx="36" fill="#0B2F6F" fill-opacity="0.18" stroke="white" stroke-opacity="0.18"/>
  <rect x="150" y="250" width="900" height="340" rx="28" fill="#081B3F" fill-opacity="0.72"/>
  <rect x="190" y="290" width="300" height="180" rx="18" fill="#E0F2FE" fill-opacity="0.9"/>
  <rect x="520" y="290" width="230" height="20" rx="10" fill="#67E8F9" fill-opacity="0.9"/>
  <rect x="520" y="330" width="410" height="18" rx="9" fill="white" fill-opacity="0.72"/>
  <rect x="520" y="366" width="370" height="18" rx="9" fill="white" fill-opacity="0.56"/>
  <rect x="520" y="402" width="300" height="18" rx="9" fill="white" fill-opacity="0.44"/>
  <rect x="190" y="500" width="740" height="22" rx="11" fill="white" fill-opacity="0.14"/>
  <g>
    <circle cx="250" cy="645" r="48" fill="#F8FAFC"/>
    <rect x="210" y="700" width="80" height="78" rx="28" fill="#F8FAFC"/>
    <rect x="192" y="715" width="116" height="86" rx="30" fill="#22C7D6" fill-opacity="0.34"/>
  </g>
  <g>
    <circle cx="425" cy="640" r="44" fill="#F8FAFC"/>
    <rect x="390" y="690" width="70" height="74" rx="24" fill="#F8FAFC"/>
    <rect x="372" y="707" width="106" height="82" rx="28" fill="#60A5FA" fill-opacity="0.28"/>
  </g>
  <g>
    <circle cx="590" cy="648" r="46" fill="#F8FAFC"/>
    <rect x="552" y="700" width="76" height="76" rx="26" fill="#F8FAFC"/>
    <rect x="530" y="714" width="120" height="88" rx="30" fill="#22C7D6" fill-opacity="0.26"/>
  </g>
  <g>
    <circle cx="785" cy="642" r="42" fill="#F8FAFC"/>
    <rect x="752" y="689" width="66" height="70" rx="22" fill="#F8FAFC"/>
    <rect x="734" y="705" width="102" height="80" rx="28" fill="#93C5FD" fill-opacity="0.28"/>
  </g>
  <defs>
    <linearGradient id="bg" x1="90" y1="40" x2="1110" y2="860" gradientUnits="userSpaceOnUse">
      <stop stop-color="#0F4CBD"/>
      <stop offset="1" stop-color="#0B2F6F"/>
    </linearGradient>
  </defs>
</svg>
