<svg width="1200" height="900" viewBox="0 0 1200 900" fill="none" xmlns="http://www.w3.org/2000/svg">
  <rect width="1200" height="900" rx="48" fill="url(#bg)"/>
  <circle cx="210" cy="160" r="140" fill="#7DD3FC" fill-opacity="0.14"/>
  <circle cx="1020" cy="210" r="110" fill="#22C7D6" fill-opacity="0.18"/>
  <rect x="120" y="200" width="960" height="560" rx="36" fill="#FFFFFF" fill-opacity="0.08" stroke="white" stroke-opacity="0.14"/>
  <rect x="180" y="250" width="420" height="210" rx="26" fill="#082B61" fill-opacity="0.82"/>
  <rect x="210" y="290" width="180" height="20" rx="10" fill="#67E8F9"/>
  <rect x="210" y="330" width="280" height="18" rx="9" fill="white" fill-opacity="0.74"/>
  <rect x="210" y="366" width="250" height="18" rx="9" fill="white" fill-opacity="0.52"/>
  <rect x="210" y="402" width="200" height="18" rx="9" fill="white" fill-opacity="0.4"/>
  <rect x="640" y="250" width="380" height="280" rx="30" fill="#F8FAFC" fill-opacity="0.9"/>
  <circle cx="750" cy="360" r="56" fill="#0EA5B7" fill-opacity="0.16"/>
  <circle cx="880" cy="360" r="56" fill="#0F4CBD" fill-opacity="0.16"/>
  <circle cx="815" cy="430" r="56" fill="#22C7D6" fill-opacity="0.16"/>
  <path d="M750 360L880 360L815 430L750 360Z" fill="#0B2F6F" fill-opacity="0.18"/>
  <g>
    <circle cx="280" cy="625" r="44" fill="#F8FAFC"/>
    <rect x="244" y="676" width="72" height="72" rx="24" fill="#F8FAFC"/>
  </g>
  <g>
    <circle cx="450" cy="625" r="44" fill="#F8FAFC"/>
    <rect x="414" y="676" width="72" height="72" rx="24" fill="#F8FAFC"/>
  </g>
  <g>
    <circle cx="620" cy="625" r="44" fill="#F8FAFC"/>
    <rect x="584" y="676" width="72" height="72" rx="24" fill="#F8FAFC"/>
  </g>
  <defs>
    <linearGradient id="bg" x1="140" y1="70" x2="1070" y2="830" gradientUnits="userSpaceOnUse">
      <stop stop-color="#0F4CBD"/>
      <stop offset="1" stop-color="#0B2F6F"/>
    </linearGradient>
  </defs>
</svg>
